# xmcd
#
# Track frame offsets:
#	150
#	16040
#	29828
#	37690
#	52193
#	67921
#	72650
#	86944
#	100097
#	121581
#	136739
#	156977
#	172675
#	192919
#	210933
#	235109
#	253715
#	261408
#	275083
#	295809
#
# Disc length: 4144 seconds
#
# Revision: 7
# Processed by: cddbd v1.5.2PL0 Copyright (c) Steve Scherf et al.
# Submitted via: EasyCDDAExtractor 10.0.2.1
#
DISCID=1a102e14
DTITLE=Various Artist - Together at the Bluebird Cafe
DYEAR=2001
DGENRE=Country
TTITLE0=Steve Earle, Townes Van Zandt - Baby Took A Limo To Memphis
TTITLE1=Steve Earle, Townes Van Zandt - My Old Friend The Blues
TTITLE2=Townes Van Zandt - (Introduction To Katie Belle)
TTITLE3=Steve Earle, Townes Van Zandt - Katie Belle
TTITLE4=Steve Earle, Townes Van Zandt - The Cape
TTITLE5=Steve Earle, Townes Van Zandt - (Introduction To Valentine's Day)
TTITLE6=Steve Earle, Townes Van Zandt - Valentine's Day
TTITLE7=Steve Earle, Townes Van Zandt - Ain't Leavin' Your Love
TTITLE8=Steve Earle, Townes Van Zandt - Randall Knife
TTITLE9=Steve Earle, Townes Van Zandt - Tom Ames' Prayer
TTITLE10=Townes Van Zandt - Interfaith Dental Clinic
TTITLE11=Steve Earle, Townes Van Zandt - A Song For
TTITLE12=Steve Earle, Townes Van Zandt - Dublin Blues
TTITLE13=Steve Earle - I Ain't Ever Satisfied
TTITLE14=Steve Earle, Townes Van Zandt - Pancho And Lefty
TTITLE15=Steve Earle, Townes Van Zandt - Immigrant Eyes
TTITLE16=Steve Earle, Townes Van Zandt - Sirocco's Pizza
TTITLE17=Steve Earle, Townes Van Zandt - Mercenary Song
TTITLE18=Steve Earle, Townes Van Zandt - Tecumseh Valley
TTITLE19=Steve Earle - Copperhead Road
EXTD=
EXTT0=
EXTT1=
EXTT2=
EXTT3=
EXTT4=
EXTT5=
EXTT6=
EXTT7=
EXTT8=
EXTT9=
EXTT10=
EXTT11=
EXTT12=
EXTT13=
EXTT14=
EXTT15=
EXTT16=
EXTT17=
EXTT18=
EXTT19=
PLAYORDER=
